<svg width="50" height="50" viewBox="0 0 50 50" fill="none" xmlns="http://www.w3.org/2000/svg">
    <path d="M50 25C50 38.805 38.805 50 25 50C11.195 50 0 38.805 0 25C0 11.195 11.195 0 25 0C38.805 0 50 11.195 50 25Z" fill="#4CAF50" />
    <path d="M25 0V25L35 30L23.9463 50C24.3425 50 24.6038 50 25 50C38.8163 50 50.0001 38.8162 50.0001 25C50.0001 11.1837 38.8163 0 25 0Z" fill="#FFC107" />
    <path d="M50 25C50 38.805 38.805 50 25 50C11.195 50 0 38.805 0 25C0 11.195 11.195 0 25 0C38.805 0 50 11.195 50 25Z" fill="#4CAF50" />
    <path d="M25 0V25L35 30L23.9463 50C24.3425 50 24.6038 50 25 50C38.8163 50 50.0001 38.8162 50.0001 25C50.0001 11.1837 38.8163 0 25 0Z" fill="#FFC107" />
    <path d="M47.3003 13.75H25.0003V30L21.2503 28.75L3.95029 11.575H3.92529C8.35029 4.61251 16.1378 0 25.0003 0C34.7503 0 43.1878 5.60001 47.3003 13.75Z" fill="#F44336" />
    <path d="M3.94727 11.5801L15.001 30.1576L21.2498 28.7501L3.94727 11.5801Z" fill="#DD2C00" />
    <path d="M23.9453 50L35.1128 29.9262L29.9991 26.25L23.9453 50Z" fill="#558B2F" />
    <path d="M47.3304 13.7501H24.9991L23.0254 19.4751L47.3304 13.7501Z" fill="#F9A825" />
    <path d="M36.25 25.0001C36.25 31.2113 31.2113 36.2501 25 36.2501C18.7888 36.2501 13.75 31.2113 13.75 25.0001C13.75 18.7889 18.7888 13.7501 25 13.7501C31.2113 13.7501 36.25 18.7889 36.25 25.0001Z" fill="white" />
    <path d="M33.75 25C33.75 29.8337 29.8337 33.7499 25 33.7499C20.1662 33.7499 16.25 29.8337 16.25 25C16.25 20.1662 20.1662 16.25 25 16.25C29.8337 16.25 33.75 20.1662 33.75 25Z" fill="#2196F3" />
  </svg>
